<svg width="176" height="63" viewBox="0 0 176 63" fill="none" xmlns="http://www.w3.org/2000/svg">
<g clip-path="url(#clip0_43_321)" filter="url(#filter0_d_43_321)">
<g filter="url(#filter1_di_43_321)">
<path d="M33.3486 1.24414C34.546 -0.414858 37.0164 -0.414634 38.2139 1.24414L48.3193 15.2471L23.002 45.874H7.00488C4.55843 45.8737 3.14077 43.1021 4.57227 41.1182L33.3486 1.24414Z" fill="#3399D1"/>
<path d="M50.3487 7.24411C51.546 5.58516 54.0164 5.58535 55.2139 7.24411L71.6485 30.0166L54.2813 12.874L26.4825 40.3134L50.3487 7.24411Z" fill="#3399D1"/>
</g>
<g filter="url(#filter2_d_43_321)">
<g filter="url(#filter3_i_43_321)">
<path d="M141.084 13.8737C151.968 13.8739 160.865 21.083 161.509 30.1803C167.344 31.1905 171.782 36.2775 171.782 42.401C171.782 49.251 166.228 54.8043 159.378 54.8043H104.185C97.335 54.8043 91.7817 49.251 91.7816 42.401C91.7816 35.8766 96.8193 30.5284 103.217 30.0348C104.497 22.9397 110.136 17.5944 116.898 17.5944C119.925 17.5944 122.727 18.6656 125.013 20.485C128.761 16.4579 134.567 13.8737 141.084 13.8737Z" fill="#3399D1"/>
</g>
<g filter="url(#filter4_d_43_321)">
<path d="M118.772 35.7498C118.972 35.9898 119.112 36.1832 119.192 36.3298C119.272 36.4765 119.312 36.6165 119.312 36.7498C119.312 36.9098 119.205 37.0965 118.992 37.3098C118.792 37.5232 118.592 37.6298 118.392 37.6298C118.125 37.6298 117.912 37.5898 117.752 37.5098C117.592 37.4298 117.458 37.3032 117.352 37.1298C117.138 36.8098 116.878 36.5365 116.572 36.3098C116.265 36.0698 115.785 35.9498 115.132 35.9498C114.572 35.9498 113.932 36.0765 113.212 36.3298C112.505 36.5832 111.998 36.8965 111.692 37.2698C111.425 37.6032 111.192 38.1098 110.992 38.7898C110.805 39.4698 110.712 40.1298 110.712 40.7698C110.712 41.5432 110.878 42.2565 111.212 42.9098C111.558 43.5498 112.052 44.0632 112.692 44.4498C113.345 44.8365 114.125 45.0298 115.032 45.0298C115.525 45.0298 116.032 44.9365 116.552 44.7498C117.085 44.5498 117.545 44.2298 117.932 43.7898H117.912C118.152 43.5365 118.452 43.4098 118.812 43.4098C119.025 43.4098 119.225 43.5032 119.412 43.6898C119.612 43.8765 119.712 44.0632 119.712 44.2498C119.712 44.4498 119.678 44.6298 119.612 44.7898C119.558 44.9365 119.452 45.1032 119.292 45.2898C118.745 45.9032 118.098 46.3232 117.352 46.5498C116.605 46.7765 115.712 46.8898 114.672 46.8898C113.752 46.8898 112.818 46.6698 111.872 46.2298C110.938 45.7898 110.218 45.2565 109.712 44.6298C109.445 44.2432 109.185 43.6898 108.932 42.9698C108.692 42.2365 108.572 41.6432 108.572 41.1898C108.572 40.0298 108.745 38.9298 109.092 37.8898C109.452 36.8365 109.985 35.9965 110.692 35.3698C111.158 34.9432 111.832 34.6232 112.712 34.4098C113.592 34.1965 114.398 34.0898 115.132 34.0898C116.025 34.0898 116.725 34.2165 117.232 34.4698C117.752 34.7098 118.265 35.1365 118.772 35.7498ZM123.723 43.7498C123.723 44.2565 123.797 44.6498 123.943 44.9298C124.103 45.1965 124.303 45.3298 124.543 45.3298C124.677 45.3298 124.803 45.3232 124.923 45.3098C125.043 45.2832 125.163 45.2698 125.283 45.2698C125.417 45.2698 125.53 45.3365 125.623 45.4698C125.73 45.6032 125.783 45.7498 125.783 45.9098C125.783 46.2298 125.63 46.4832 125.323 46.6698C125.03 46.8432 124.63 46.9298 124.123 46.9298C123.763 46.9298 123.397 46.8232 123.023 46.6098C122.663 46.3832 122.363 46.0365 122.123 45.5698C121.883 45.0898 121.763 44.4965 121.763 43.7898C121.763 42.2698 121.79 40.9832 121.843 39.9298C121.91 38.6765 121.943 37.0965 121.943 35.1898C121.943 34.5898 121.977 34.1698 122.043 33.9298C122.123 33.7432 122.25 33.6032 122.423 33.5098C122.61 33.4032 122.803 33.3498 123.003 33.3498C123.203 33.3498 123.377 33.3832 123.523 33.4498C123.683 33.5165 123.79 33.6232 123.843 33.7698C123.897 33.9298 123.93 34.0898 123.943 34.2498C123.97 34.3965 123.983 34.6098 123.983 34.8898C123.983 35.4365 123.963 35.9632 123.923 36.4698C123.897 37.0832 123.883 37.5298 123.883 37.8098C123.777 40.1565 123.723 42.1365 123.723 43.7498ZM135.067 40.4298C135.174 40.6165 135.261 40.8898 135.327 41.2498C135.394 41.5965 135.427 41.9098 135.427 42.1898C135.427 42.7098 135.314 43.4498 135.087 44.4098C134.167 46.0898 132.807 46.9298 131.007 46.9298C130.341 46.9298 129.661 46.7098 128.967 46.2698C128.274 45.8298 127.794 45.3232 127.527 44.7498C127.167 43.6032 126.987 42.8765 126.987 42.5698C126.987 42.0365 127.101 41.4698 127.327 40.8698C127.567 40.2698 127.867 39.7498 128.227 39.3098C128.454 39.0032 128.861 38.7432 129.447 38.5298C130.034 38.3032 130.567 38.1898 131.047 38.1898C131.981 38.1898 132.774 38.3698 133.427 38.7298C134.081 39.0765 134.627 39.6432 135.067 40.4298ZM133.327 43.6498C133.394 43.4765 133.427 43.0298 133.427 42.3098C133.427 41.9232 133.354 41.5432 133.207 41.1698C133.074 40.7965 132.874 40.4765 132.607 40.2098C132.581 40.1832 132.507 40.1432 132.387 40.0898C132.267 40.0232 132.101 39.9632 131.887 39.9098C131.687 39.8432 131.454 39.8098 131.187 39.8098C130.441 39.8098 129.894 40.1098 129.547 40.7098C129.201 41.3098 129.027 41.9898 129.027 42.7498C129.027 42.8832 129.061 43.1365 129.127 43.5098C129.207 43.8832 129.274 44.1165 129.327 44.2098C129.367 44.3032 129.467 44.4365 129.627 44.6098C129.801 44.7698 130.007 44.9165 130.247 45.0498C130.501 45.1698 130.761 45.2298 131.027 45.2298C131.627 45.2298 132.107 45.0898 132.467 44.8098C132.827 44.5165 133.114 44.1298 133.327 43.6498ZM138.242 38.1698C139.122 38.1698 139.562 38.7498 139.562 39.9098C139.562 40.0565 139.548 40.3832 139.522 40.8898C139.495 41.4765 139.482 41.9365 139.482 42.2698C139.482 43.2032 139.608 43.9565 139.862 44.5298C139.955 44.7165 140.122 44.8632 140.362 44.9698C140.615 45.0765 140.828 45.1298 141.002 45.1298C141.268 45.1298 141.488 45.0965 141.662 45.0298C141.835 44.9632 141.995 44.8632 142.142 44.7298C142.302 44.5965 142.455 44.4498 142.602 44.2898C142.855 44.0098 143.015 43.6898 143.082 43.3298C143.162 42.9565 143.208 42.4632 143.222 41.8498C143.222 41.4632 143.242 41.0898 143.282 40.7298C143.362 40.1432 143.402 39.5965 143.402 39.0898C143.402 38.8098 143.475 38.5765 143.622 38.3898C143.782 38.1898 144.008 38.0898 144.302 38.0898C144.448 38.0898 144.622 38.1432 144.822 38.2498C145.035 38.3432 145.175 38.4498 145.242 38.5698C145.335 38.7298 145.382 38.9498 145.382 39.2298C145.382 39.4032 145.362 39.5632 145.322 39.7098C145.255 39.9098 145.222 40.1632 145.222 40.4698C145.222 40.6298 145.235 40.8965 145.262 41.2698C145.302 41.5498 145.322 41.8365 145.322 42.1298C145.322 43.0232 145.388 43.6832 145.522 44.1098C145.668 44.5632 145.868 44.9632 146.122 45.3098C146.388 45.5898 146.568 45.7965 146.662 45.9298C146.755 46.0498 146.802 46.1565 146.802 46.2498C146.802 46.4098 146.722 46.5632 146.562 46.7098C146.402 46.8565 146.235 46.9298 146.062 46.9298C145.568 46.9298 145.135 46.7632 144.762 46.4298C144.402 46.0832 144.135 45.6432 143.962 45.1098C143.815 45.2832 143.622 45.4965 143.382 45.7498C143.142 46.0032 142.915 46.2098 142.702 46.3698C142.182 46.7432 141.515 46.9298 140.702 46.9298C140.368 46.9298 140.002 46.8298 139.602 46.6298C139.215 46.4298 138.862 46.1698 138.542 45.8498C138.222 45.5165 138.002 45.1632 137.882 44.7898C137.868 44.7632 137.828 44.6565 137.762 44.4698C137.708 44.2832 137.682 44.0032 137.682 43.6298L137.662 40.4298C137.662 40.2432 137.615 39.9498 137.522 39.5498C137.442 39.2832 137.402 39.0832 137.402 38.9498C137.402 38.7232 137.475 38.5365 137.622 38.3898C137.782 38.2432 137.988 38.1698 138.242 38.1698ZM156.58 46.7498C156.3 46.7498 156.033 46.6698 155.78 46.5098C155.54 46.3365 155.326 46.1565 155.14 45.9698C154.953 45.7698 154.826 45.6365 154.76 45.5698C154.48 45.9698 154.073 46.2965 153.54 46.5498C153.006 46.8032 152.493 46.9298 152 46.9298C151.24 46.9298 150.566 46.7698 149.98 46.4498C149.393 46.1298 148.94 45.6965 148.62 45.1498C148.3 44.5898 148.14 43.9698 148.14 43.2898C148.14 42.6498 148.213 42.0365 148.36 41.4498C148.52 40.8498 148.733 40.3498 149 39.9498C149.36 39.4432 149.84 39.0432 150.44 38.7498C151.053 38.4565 151.66 38.3098 152.26 38.3098C152.62 38.3098 152.96 38.3765 153.28 38.5098C153.6 38.6432 153.88 38.8098 154.12 39.0098C154.12 38.1298 154.113 37.5765 154.1 37.3498V36.9098C154.1 35.6565 154.18 34.7432 154.34 34.1698C154.486 33.6098 154.846 33.3298 155.42 33.3298C155.726 33.3298 155.953 33.3965 156.1 33.5298C156.246 33.6632 156.32 33.9165 156.32 34.2898C156.32 34.4232 156.286 34.7898 156.22 35.3898C156.073 36.8832 156 38.3765 156 39.8698C156 41.1232 156.02 42.0565 156.06 42.6698C156.113 43.2698 156.213 43.7498 156.36 44.1098C156.52 44.4698 156.766 44.7898 157.1 45.0698C157.3 45.2298 157.44 45.3632 157.52 45.4698C157.613 45.5765 157.66 45.7165 157.66 45.8898C157.66 46.1032 157.553 46.3032 157.34 46.4898C157.126 46.6632 156.873 46.7498 156.58 46.7498ZM151.94 45.3098C152.646 45.3098 153.166 45.0898 153.5 44.6498C153.846 44.1965 154.02 43.6232 154.02 42.9298L154 41.8098C153.986 41.5965 153.98 41.3098 153.98 40.9498C153.486 40.3632 152.953 40.0698 152.38 40.0698C151.993 40.0698 151.626 40.1698 151.28 40.3698C150.946 40.5698 150.673 40.8632 150.46 41.2498C150.233 41.6898 150.12 42.3565 150.12 43.2498C150.12 43.8632 150.3 44.3632 150.66 44.7498C151.02 45.1232 151.446 45.3098 151.94 45.3098Z" fill="white"/>
</g>
</g>
<g filter="url(#filter5_d_43_321)">
<path d="M30.0771 45.8737V22.6009H44.9862V26.135H34.293V32.4532H43.9634V35.9873H34.293V45.8737H30.0771ZM53.043 22.6009V45.8737H48.8271V22.6009H53.043ZM56.5856 26.135V22.6009H75.1538V26.135H67.9606V45.8737H63.7788V26.135H56.5856ZM78.7333 22.6009H83.8924L90.8015 39.4646H91.0742L97.9833 22.6009H103.142V45.8737H99.097V29.885H98.881L92.4492 45.8055H89.4265L82.9947 29.8509H82.7788V45.8737H78.7333V22.6009Z" fill="white"/>
</g>
</g>
<defs>
<filter id="filter0_d_43_321" x="0" y="0" width="175.782" height="62.8043" filterUnits="userSpaceOnUse" color-interpolation-filters="sRGB">
<feFlood flood-opacity="0" result="BackgroundImageFix"/>
<feColorMatrix in="SourceAlpha" type="matrix" values="0 0 0 0 0 0 0 0 0 0 0 0 0 0 0 0 0 0 127 0" result="hardAlpha"/>
<feOffset dy="4"/>
<feGaussianBlur stdDeviation="2"/>
<feComposite in2="hardAlpha" operator="out"/>
<feColorMatrix type="matrix" values="0 0 0 0 0 0 0 0 0 0 0 0 0 0 0 0 0 0 0.25 0"/>
<feBlend mode="normal" in2="BackgroundImageFix" result="effect1_dropShadow_43_321"/>
<feBlend mode="normal" in="SourceGraphic" in2="effect1_dropShadow_43_321" result="shape"/>
</filter>
<filter id="filter1_di_43_321" x="-0.000183105" y="-2.28882e-05" width="75.6487" height="53.874" filterUnits="userSpaceOnUse" color-interpolation-filters="sRGB">
<feFlood flood-opacity="0" result="BackgroundImageFix"/>
<feColorMatrix in="SourceAlpha" type="matrix" values="0 0 0 0 0 0 0 0 0 0 0 0 0 0 0 0 0 0 127 0" result="hardAlpha"/>
<feOffset dy="4"/>
<feGaussianBlur stdDeviation="2"/>
<feComposite in2="hardAlpha" operator="out"/>
<feColorMatrix type="matrix" values="0 0 0 0 0 0 0 0 0 0 0 0 0 0 0 0 0 0 0.25 0"/>
<feBlend mode="normal" in2="BackgroundImageFix" result="effect1_dropShadow_43_321"/>
<feBlend mode="normal" in="SourceGraphic" in2="effect1_dropShadow_43_321" result="shape"/>
<feColorMatrix in="SourceAlpha" type="matrix" values="0 0 0 0 0 0 0 0 0 0 0 0 0 0 0 0 0 0 127 0" result="hardAlpha"/>
<feOffset dy="4"/>
<feGaussianBlur stdDeviation="2"/>
<feComposite in2="hardAlpha" operator="arithmetic" k2="-1" k3="1"/>
<feColorMatrix type="matrix" values="0 0 0 0 0 0 0 0 0 0 0 0 0 0 0 0 0 0 0.25 0"/>
<feBlend mode="normal" in2="shape" result="effect2_innerShadow_43_321"/>
</filter>
<filter id="filter2_d_43_321" x="87.7816" y="13.8737" width="88" height="48.9307" filterUnits="userSpaceOnUse" color-interpolation-filters="sRGB">
<feFlood flood-opacity="0" result="BackgroundImageFix"/>
<feColorMatrix in="SourceAlpha" type="matrix" values="0 0 0 0 0 0 0 0 0 0 0 0 0 0 0 0 0 0 127 0" result="hardAlpha"/>
<feOffset dy="4"/>
<feGaussianBlur stdDeviation="2"/>
<feComposite in2="hardAlpha" operator="out"/>
<feColorMatrix type="matrix" values="0 0 0 0 0 0 0 0 0 0 0 0 0 0 0 0 0 0 0.25 0"/>
<feBlend mode="normal" in2="BackgroundImageFix" result="effect1_dropShadow_43_321"/>
<feBlend mode="normal" in="SourceGraphic" in2="effect1_dropShadow_43_321" result="shape"/>
</filter>
<filter id="filter3_i_43_321" x="91.7816" y="13.8737" width="80" height="44.9307" filterUnits="userSpaceOnUse" color-interpolation-filters="sRGB">
<feFlood flood-opacity="0" result="BackgroundImageFix"/>
<feBlend mode="normal" in="SourceGraphic" in2="BackgroundImageFix" result="shape"/>
<feColorMatrix in="SourceAlpha" type="matrix" values="0 0 0 0 0 0 0 0 0 0 0 0 0 0 0 0 0 0 127 0" result="hardAlpha"/>
<feOffset dy="4"/>
<feGaussianBlur stdDeviation="8"/>
<feComposite in2="hardAlpha" operator="arithmetic" k2="-1" k3="1"/>
<feColorMatrix type="matrix" values="0 0 0 0 0 0 0 0 0 0 0 0 0 0 0 0 0 0 0.25 0"/>
<feBlend mode="normal" in2="shape" result="effect1_innerShadow_43_321"/>
</filter>
<filter id="filter4_d_43_321" x="104.572" y="33.3298" width="57.088" height="21.6" filterUnits="userSpaceOnUse" color-interpolation-filters="sRGB">
<feFlood flood-opacity="0" result="BackgroundImageFix"/>
<feColorMatrix in="SourceAlpha" type="matrix" values="0 0 0 0 0 0 0 0 0 0 0 0 0 0 0 0 0 0 127 0" result="hardAlpha"/>
<feOffset dy="4"/>
<feGaussianBlur stdDeviation="2"/>
<feComposite in2="hardAlpha" operator="out"/>
<feColorMatrix type="matrix" values="0 0 0 0 0 0 0 0 0 0 0 0 0 0 0 0 0 0 0.25 0"/>
<feBlend mode="normal" in2="BackgroundImageFix" result="effect1_dropShadow_43_321"/>
<feBlend mode="normal" in="SourceGraphic" in2="effect1_dropShadow_43_321" result="shape"/>
</filter>
<filter id="filter5_d_43_321" x="26.0771" y="22.6009" width="81.0654" height="31.2727" filterUnits="userSpaceOnUse" color-interpolation-filters="sRGB">
<feFlood flood-opacity="0" result="BackgroundImageFix"/>
<feColorMatrix in="SourceAlpha" type="matrix" values="0 0 0 0 0 0 0 0 0 0 0 0 0 0 0 0 0 0 127 0" result="hardAlpha"/>
<feOffset dy="4"/>
<feGaussianBlur stdDeviation="2"/>
<feComposite in2="hardAlpha" operator="out"/>
<feColorMatrix type="matrix" values="0 0 0 0 0 0 0 0 0 0 0 0 0 0 0 0 0 0 0.25 0"/>
<feBlend mode="normal" in2="BackgroundImageFix" result="effect1_dropShadow_43_321"/>
<feBlend mode="normal" in="SourceGraphic" in2="effect1_dropShadow_43_321" result="shape"/>
</filter>
<clipPath id="clip0_43_321">
<rect width="167.782" height="54.8043" fill="white" transform="translate(4)"/>
</clipPath>
</defs>
</svg>
